ISO-10303-21;
HEADER;
/* Generated by software containing ST-Developer
 * from STEP Tools, Inc. (www.steptools.com) 
 */

FILE_DESCRIPTION(
/* description */ (''),
/* implementation_level */ '2;1');

FILE_NAME(
/* name */ 'M3 x 10 Brass Standoff_.step',
/* time_stamp */ '2025-07-09T10:11:34+05:30',
/* author */ (''),
/* organization */ (''),
/* preprocessor_version */ 'ST-DEVELOPER v20.1',
/* originating_system */ 'Autodesk Translation Framework v14.10.0.0',
/* authorisation */ '');

FILE_SCHEMA (('AUTOMOTIVE_DESIGN { 1 0 10303 214 3 1 1 }'));
ENDSEC;

DATA;
#10=MECHANICAL_DESIGN_GEOMETRIC_PRESENTATION_REPRESENTATION('',(#13),#696);
#11=SHAPE_REPRESENTATION_RELATIONSHIP('SRR','None',#703,#12);
#12=ADVANCED_BREP_SHAPE_REPRESENTATION('',(#14),#695);
#13=STYLED_ITEM('',(#712),#14);
#14=MANIFOLD_SOLID_BREP('Body1',#418);
#15=CYLINDRICAL_SURFACE('',#437,1.2645);
#16=CYLINDRICAL_SURFACE('',#442,1.4635);
#17=FACE_BOUND('',#68,.T.);
#18=FACE_BOUND('',#83,.T.);
#19=PLANE('',#436);
#20=PLANE('',#444);
#21=PLANE('',#445);
#22=PLANE('',#446);
#23=PLANE('',#447);
#24=PLANE('',#448);
#25=PLANE('',#449);
#26=PLANE('',#450);
#27=PLANE('',#451);
#28=PLANE('',#452);
#29=PLANE('',#453);
#30=PLANE('',#454);
#31=PLANE('',#455);
#32=PLANE('',#456);
#33=PLANE('',#457);
#34=PLANE('',#458);
#35=PLANE('',#459);
#36=PLANE('',#460);
#37=PLANE('',#461);
#38=PLANE('',#463);
#39=PLANE('',#464);
#40=FACE_OUTER_BOUND('',#66,.T.);
#41=FACE_OUTER_BOUND('',#67,.T.);
#42=FACE_OUTER_BOUND('',#69,.T.);
#43=FACE_OUTER_BOUND('',#70,.T.);
#44=FACE_OUTER_BOUND('',#71,.T.);
#45=FACE_OUTER_BOUND('',#72,.T.);
#46=FACE_OUTER_BOUND('',#73,.T.);
#47=FACE_OUTER_BOUND('',#74,.T.);
#48=FACE_OUTER_BOUND('',#75,.T.);
#49=FACE_OUTER_BOUND('',#76,.T.);
#50=FACE_OUTER_BOUND('',#77,.T.);
#51=FACE_OUTER_BOUND('',#78,.T.);
#52=FACE_OUTER_BOUND('',#79,.T.);
#53=FACE_OUTER_BOUND('',#80,.T.);
#54=FACE_OUTER_BOUND('',#81,.T.);
#55=FACE_OUTER_BOUND('',#82,.T.);
#56=FACE_OUTER_BOUND('',#84,.T.);
#57=FACE_OUTER_BOUND('',#85,.T.);
#58=FACE_OUTER_BOUND('',#86,.T.);
#59=FACE_OUTER_BOUND('',#87,.T.);
#60=FACE_OUTER_BOUND('',#88,.T.);
#61=FACE_OUTER_BOUND('',#89,.T.);
#62=FACE_OUTER_BOUND('',#90,.T.);
#63=FACE_OUTER_BOUND('',#91,.T.);
#64=FACE_OUTER_BOUND('',#92,.T.);
#65=FACE_OUTER_BOUND('',#93,.T.);
#66=EDGE_LOOP('',(#281,#282,#283,#284,#285));
#67=EDGE_LOOP('',(#286,#287,#288,#289,#290,#291));
#68=EDGE_LOOP('',(#292));
#69=EDGE_LOOP('',(#293,#294,#295,#296,#297));
#70=EDGE_LOOP('',(#298,#299,#300,#301));
#71=EDGE_LOOP('',(#302,#303,#304,#305));
#72=EDGE_LOOP('',(#306));
#73=EDGE_LOOP('',(#307,#308,#309,#310));
#74=EDGE_LOOP('',(#311,#312,#313,#314));
#75=EDGE_LOOP('',(#315,#316,#317,#318));
#76=EDGE_LOOP('',(#319,#320,#321,#322));
#77=EDGE_LOOP('',(#323,#324,#325,#326));
#78=EDGE_LOOP('',(#327,#328,#329,#330));
#79=EDGE_LOOP('',(#331,#332,#333,#334));
#80=EDGE_LOOP('',(#335,#336,#337,#338));
#81=EDGE_LOOP('',(#339,#340,#341,#342));
#82=EDGE_LOOP('',(#343,#344,#345,#346,#347,#348));
#83=EDGE_LOOP('',(#349));
#84=EDGE_LOOP('',(#350,#351,#352,#353));
#85=EDGE_LOOP('',(#354,#355,#356,#357));
#86=EDGE_LOOP('',(#358,#359,#360,#361));
#87=EDGE_LOOP('',(#362,#363,#364,#365));
#88=EDGE_LOOP('',(#366,#367,#368,#369));
#89=EDGE_LOOP('',(#370,#371,#372,#373));
#90=EDGE_LOOP('',(#374,#375,#376,#377));
#91=EDGE_LOOP('',(#378,#379,#380));
#92=EDGE_LOOP('',(#381,#382,#383,#384));
#93=EDGE_LOOP('',(#385,#386,#387,#388));
#94=LINE('',#585,#141);
#95=LINE('',#592,#142);
#96=LINE('',#594,#143);
#97=LINE('',#596,#144);
#98=LINE('',#598,#145);
#99=LINE('',#600,#146);
#100=LINE('',#601,#147);
#101=LINE('',#604,#148);
#102=LINE('',#610,#149);
#103=LINE('',#614,#150);
#104=LINE('',#620,#151);
#105=LINE('',#622,#152);
#106=LINE('',#624,#153);
#107=LINE('',#625,#154);
#108=LINE('',#628,#155);
#109=LINE('',#630,#156);
#110=LINE('',#631,#157);
#111=LINE('',#634,#158);
#112=LINE('',#636,#159);
#113=LINE('',#637,#160);
#114=LINE('',#640,#161);
#115=LINE('',#642,#162);
#116=LINE('',#643,#163);
#117=LINE('',#646,#164);
#118=LINE('',#648,#165);
#119=LINE('',#649,#166);
#120=LINE('',#651,#167);
#121=LINE('',#652,#168);
#122=LINE('',#655,#169);
#123=LINE('',#657,#170);
#124=LINE('',#658,#171);
#125=LINE('',#661,#172);
#126=LINE('',#662,#173);
#127=LINE('',#665,#174);
#128=LINE('',#666,#175);
#129=LINE('',#670,#176);
#130=LINE('',#671,#177);
#131=LINE('',#672,#178);
#132=LINE('',#675,#179);
#133=LINE('',#676,#180);
#134=LINE('',#678,#181);
#135=LINE('',#679,#182);
#136=LINE('',#681,#183);
#137=LINE('',#683,#184);
#138=LINE('',#686,#185);
#139=LINE('',#689,#186);
#140=LINE('',#691,#187);
#141=VECTOR('',#471,1.3645);
#142=VECTOR('',#478,10.);
#143=VECTOR('',#479,10.);
#144=VECTOR('',#480,10.);
#145=VECTOR('',#481,10.);
#146=VECTOR('',#482,10.);
#147=VECTOR('',#483,10.);
#148=VECTOR('',#486,1.2645);
#149=VECTOR('',#493,1.3635);
#150=VECTOR('',#498,1.5);
#151=VECTOR('',#505,10.);
#152=VECTOR('',#506,10.);
#153=VECTOR('',#507,10.);
#154=VECTOR('',#508,10.);
#155=VECTOR('',#511,10.);
#156=VECTOR('',#512,10.);
#157=VECTOR('',#513,10.);
#158=VECTOR('',#516,10.);
#159=VECTOR('',#517,10.);
#160=VECTOR('',#518,10.);
#161=VECTOR('',#521,10.);
#162=VECTOR('',#522,10.);
#163=VECTOR('',#523,10.);
#164=VECTOR('',#526,10.);
#165=VECTOR('',#527,10.);
#166=VECTOR('',#528,10.);
#167=VECTOR('',#531,10.);
#168=VECTOR('',#532,10.);
#169=VECTOR('',#535,10.);
#170=VECTOR('',#536,10.);
#171=VECTOR('',#537,10.);
#172=VECTOR('',#540,10.);
#173=VECTOR('',#541,10.);
#174=VECTOR('',#544,10.);
#175=VECTOR('',#545,10.);
#176=VECTOR('',#550,10.);
#177=VECTOR('',#551,10.);
#178=VECTOR('',#552,10.);
#179=VECTOR('',#555,10.);
#180=VECTOR('',#556,10.);
#181=VECTOR('',#559,10.);
#182=VECTOR('',#560,10.);
#183=VECTOR('',#563,10.);
#184=VECTOR('',#566,10.);
#185=VECTOR('',#571,10.);
#186=VECTOR('',#574,0.63225);
#187=VECTOR('',#577,10.);
#188=CIRCLE('',#433,1.4645);
#189=CIRCLE('',#434,1.2645);
#190=CIRCLE('',#435,1.2645);
#191=CIRCLE('',#438,1.2645);
#192=CIRCLE('',#440,1.2635);
#193=CIRCLE('',#441,1.4635);
#194=CIRCLE('',#443,1.4635);
#195=VERTEX_POINT('',#582);
#196=VERTEX_POINT('',#584);
#197=VERTEX_POINT('',#586);
#198=VERTEX_POINT('',#590);
#199=VERTEX_POINT('',#591);
#200=VERTEX_POINT('',#593);
#201=VERTEX_POINT('',#595);
#202=VERTEX_POINT('',#597);
#203=VERTEX_POINT('',#599);
#204=VERTEX_POINT('',#603);
#205=VERTEX_POINT('',#607);
#206=VERTEX_POINT('',#609);
#207=VERTEX_POINT('',#613);
#208=VERTEX_POINT('',#618);
#209=VERTEX_POINT('',#619);
#210=VERTEX_POINT('',#621);
#211=VERTEX_POINT('',#623);
#212=VERTEX_POINT('',#627);
#213=VERTEX_POINT('',#629);
#214=VERTEX_POINT('',#633);
#215=VERTEX_POINT('',#635);
#216=VERTEX_POINT('',#639);
#217=VERTEX_POINT('',#641);
#218=VERTEX_POINT('',#645);
#219=VERTEX_POINT('',#647);
#220=VERTEX_POINT('',#654);
#221=VERTEX_POINT('',#656);
#222=VERTEX_POINT('',#660);
#223=VERTEX_POINT('',#664);
#224=VERTEX_POINT('',#669);
#225=VERTEX_POINT('',#674);
#226=VERTEX_POINT('',#688);
#227=EDGE_CURVE('',#195,#195,#188,.T.);
#228=EDGE_CURVE('',#195,#196,#94,.T.);
#229=EDGE_CURVE('',#196,#197,#189,.T.);
#230=EDGE_CURVE('',#197,#196,#190,.T.);
#231=EDGE_CURVE('',#198,#199,#95,.T.);
#232=EDGE_CURVE('',#200,#198,#96,.T.);
#233=EDGE_CURVE('',#201,#200,#97,.T.);
#234=EDGE_CURVE('',#202,#201,#98,.T.);
#235=EDGE_CURVE('',#203,#202,#99,.T.);
#236=EDGE_CURVE('',#199,#203,#100,.T.);
#237=EDGE_CURVE('',#197,#204,#101,.T.);
#238=EDGE_CURVE('',#204,#204,#191,.T.);
#239=EDGE_CURVE('',#205,#205,#192,.T.);
#240=EDGE_CURVE('',#205,#206,#102,.T.);
#241=EDGE_CURVE('',#206,#206,#193,.T.);
#242=EDGE_CURVE('',#206,#207,#103,.T.);
#243=EDGE_CURVE('',#207,#207,#194,.T.);
#244=EDGE_CURVE('',#208,#209,#104,.T.);
#245=EDGE_CURVE('',#209,#210,#105,.T.);
#246=EDGE_CURVE('',#210,#211,#106,.T.);
#247=EDGE_CURVE('',#208,#211,#107,.T.);
#248=EDGE_CURVE('',#209,#212,#108,.T.);
#249=EDGE_CURVE('',#212,#213,#109,.T.);
#250=EDGE_CURVE('',#213,#210,#110,.T.);
#251=EDGE_CURVE('',#212,#214,#111,.T.);
#252=EDGE_CURVE('',#214,#215,#112,.T.);
#253=EDGE_CURVE('',#215,#213,#113,.T.);
#254=EDGE_CURVE('',#214,#216,#114,.T.);
#255=EDGE_CURVE('',#216,#217,#115,.T.);
#256=EDGE_CURVE('',#217,#215,#116,.T.);
#257=EDGE_CURVE('',#218,#217,#117,.T.);
#258=EDGE_CURVE('',#216,#219,#118,.T.);
#259=EDGE_CURVE('',#219,#218,#119,.T.);
#260=EDGE_CURVE('',#211,#218,#120,.T.);
#261=EDGE_CURVE('',#219,#208,#121,.T.);
#262=EDGE_CURVE('',#220,#218,#122,.T.);
#263=EDGE_CURVE('',#221,#220,#123,.T.);
#264=EDGE_CURVE('',#221,#217,#124,.T.);
#265=EDGE_CURVE('',#222,#211,#125,.T.);
#266=EDGE_CURVE('',#220,#222,#126,.T.);
#267=EDGE_CURVE('',#223,#210,#127,.T.);
#268=EDGE_CURVE('',#222,#223,#128,.T.);
#269=EDGE_CURVE('',#199,#224,#129,.T.);
#270=EDGE_CURVE('',#224,#221,#130,.T.);
#271=EDGE_CURVE('',#221,#198,#131,.T.);
#272=EDGE_CURVE('',#225,#224,#132,.T.);
#273=EDGE_CURVE('',#203,#225,#133,.T.);
#274=EDGE_CURVE('',#223,#225,#134,.T.);
#275=EDGE_CURVE('',#202,#223,#135,.T.);
#276=EDGE_CURVE('',#200,#220,#136,.T.);
#277=EDGE_CURVE('',#201,#222,#137,.T.);
#278=EDGE_CURVE('',#224,#215,#138,.T.);
#279=EDGE_CURVE('',#204,#226,#139,.T.);
#280=EDGE_CURVE('',#225,#213,#140,.T.);
#281=ORIENTED_EDGE('',*,*,#227,.T.);
#282=ORIENTED_EDGE('',*,*,#228,.T.);
#283=ORIENTED_EDGE('',*,*,#229,.T.);
#284=ORIENTED_EDGE('',*,*,#230,.T.);
#285=ORIENTED_EDGE('',*,*,#228,.F.);
#286=ORIENTED_EDGE('',*,*,#231,.F.);
#287=ORIENTED_EDGE('',*,*,#232,.F.);
#288=ORIENTED_EDGE('',*,*,#233,.F.);
#289=ORIENTED_EDGE('',*,*,#234,.F.);
#290=ORIENTED_EDGE('',*,*,#235,.F.);
#291=ORIENTED_EDGE('',*,*,#236,.F.);
#292=ORIENTED_EDGE('',*,*,#227,.F.);
#293=ORIENTED_EDGE('',*,*,#229,.F.);
#294=ORIENTED_EDGE('',*,*,#230,.F.);
#295=ORIENTED_EDGE('',*,*,#237,.T.);
#296=ORIENTED_EDGE('',*,*,#238,.T.);
#297=ORIENTED_EDGE('',*,*,#237,.F.);
#298=ORIENTED_EDGE('',*,*,#239,.T.);
#299=ORIENTED_EDGE('',*,*,#240,.T.);
#300=ORIENTED_EDGE('',*,*,#241,.T.);
#301=ORIENTED_EDGE('',*,*,#240,.F.);
#302=ORIENTED_EDGE('',*,*,#241,.F.);
#303=ORIENTED_EDGE('',*,*,#242,.T.);
#304=ORIENTED_EDGE('',*,*,#243,.F.);
#305=ORIENTED_EDGE('',*,*,#242,.F.);
#306=ORIENTED_EDGE('',*,*,#239,.F.);
#307=ORIENTED_EDGE('',*,*,#244,.T.);
#308=ORIENTED_EDGE('',*,*,#245,.T.);
#309=ORIENTED_EDGE('',*,*,#246,.T.);
#310=ORIENTED_EDGE('',*,*,#247,.F.);
#311=ORIENTED_EDGE('',*,*,#248,.T.);
#312=ORIENTED_EDGE('',*,*,#249,.T.);
#313=ORIENTED_EDGE('',*,*,#250,.T.);
#314=ORIENTED_EDGE('',*,*,#245,.F.);
#315=ORIENTED_EDGE('',*,*,#251,.T.);
#316=ORIENTED_EDGE('',*,*,#252,.T.);
#317=ORIENTED_EDGE('',*,*,#253,.T.);
#318=ORIENTED_EDGE('',*,*,#249,.F.);
#319=ORIENTED_EDGE('',*,*,#254,.T.);
#320=ORIENTED_EDGE('',*,*,#255,.T.);
#321=ORIENTED_EDGE('',*,*,#256,.T.);
#322=ORIENTED_EDGE('',*,*,#252,.F.);
#323=ORIENTED_EDGE('',*,*,#257,.T.);
#324=ORIENTED_EDGE('',*,*,#255,.F.);
#325=ORIENTED_EDGE('',*,*,#258,.T.);
#326=ORIENTED_EDGE('',*,*,#259,.T.);
#327=ORIENTED_EDGE('',*,*,#260,.T.);
#328=ORIENTED_EDGE('',*,*,#259,.F.);
#329=ORIENTED_EDGE('',*,*,#261,.T.);
#330=ORIENTED_EDGE('',*,*,#247,.T.);
#331=ORIENTED_EDGE('',*,*,#257,.F.);
#332=ORIENTED_EDGE('',*,*,#262,.F.);
#333=ORIENTED_EDGE('',*,*,#263,.F.);
#334=ORIENTED_EDGE('',*,*,#264,.T.);
#335=ORIENTED_EDGE('',*,*,#260,.F.);
#336=ORIENTED_EDGE('',*,*,#265,.F.);
#337=ORIENTED_EDGE('',*,*,#266,.F.);
#338=ORIENTED_EDGE('',*,*,#262,.T.);
#339=ORIENTED_EDGE('',*,*,#246,.F.);
#340=ORIENTED_EDGE('',*,*,#267,.F.);
#341=ORIENTED_EDGE('',*,*,#268,.F.);
#342=ORIENTED_EDGE('',*,*,#265,.T.);
#343=ORIENTED_EDGE('',*,*,#244,.F.);
#344=ORIENTED_EDGE('',*,*,#261,.F.);
#345=ORIENTED_EDGE('',*,*,#258,.F.);
#346=ORIENTED_EDGE('',*,*,#254,.F.);
#347=ORIENTED_EDGE('',*,*,#251,.F.);
#348=ORIENTED_EDGE('',*,*,#248,.F.);
#349=ORIENTED_EDGE('',*,*,#243,.T.);
#350=ORIENTED_EDGE('',*,*,#231,.T.);
#351=ORIENTED_EDGE('',*,*,#269,.T.);
#352=ORIENTED_EDGE('',*,*,#270,.T.);
#353=ORIENTED_EDGE('',*,*,#271,.T.);
#354=ORIENTED_EDGE('',*,*,#272,.T.);
#355=ORIENTED_EDGE('',*,*,#269,.F.);
#356=ORIENTED_EDGE('',*,*,#236,.T.);
#357=ORIENTED_EDGE('',*,*,#273,.T.);
#358=ORIENTED_EDGE('',*,*,#274,.T.);
#359=ORIENTED_EDGE('',*,*,#273,.F.);
#360=ORIENTED_EDGE('',*,*,#235,.T.);
#361=ORIENTED_EDGE('',*,*,#275,.T.);
#362=ORIENTED_EDGE('',*,*,#232,.T.);
#363=ORIENTED_EDGE('',*,*,#271,.F.);
#364=ORIENTED_EDGE('',*,*,#263,.T.);
#365=ORIENTED_EDGE('',*,*,#276,.F.);
#366=ORIENTED_EDGE('',*,*,#268,.T.);
#367=ORIENTED_EDGE('',*,*,#275,.F.);
#368=ORIENTED_EDGE('',*,*,#234,.T.);
#369=ORIENTED_EDGE('',*,*,#277,.T.);
#370=ORIENTED_EDGE('',*,*,#266,.T.);
#371=ORIENTED_EDGE('',*,*,#277,.F.);
#372=ORIENTED_EDGE('',*,*,#233,.T.);
#373=ORIENTED_EDGE('',*,*,#276,.T.);
#374=ORIENTED_EDGE('',*,*,#256,.F.);
#375=ORIENTED_EDGE('',*,*,#264,.F.);
#376=ORIENTED_EDGE('',*,*,#270,.F.);
#377=ORIENTED_EDGE('',*,*,#278,.T.);
#378=ORIENTED_EDGE('',*,*,#238,.F.);
#379=ORIENTED_EDGE('',*,*,#279,.T.);
#380=ORIENTED_EDGE('',*,*,#279,.F.);
#381=ORIENTED_EDGE('',*,*,#250,.F.);
#382=ORIENTED_EDGE('',*,*,#280,.F.);
#383=ORIENTED_EDGE('',*,*,#274,.F.);
#384=ORIENTED_EDGE('',*,*,#267,.T.);
#385=ORIENTED_EDGE('',*,*,#253,.F.);
#386=ORIENTED_EDGE('',*,*,#278,.F.);
#387=ORIENTED_EDGE('',*,*,#272,.F.);
#388=ORIENTED_EDGE('',*,*,#280,.T.);
#389=CONICAL_SURFACE('',#432,1.3645,0.785398163397448);
#390=CONICAL_SURFACE('',#439,1.3635,0.785398163397448);
#391=CONICAL_SURFACE('',#462,0.63225,1.02974425867665);
#392=ADVANCED_FACE('',(#40),#389,.F.);
#393=ADVANCED_FACE('',(#41,#17),#19,.F.);
#394=ADVANCED_FACE('',(#42),#15,.F.);
#395=ADVANCED_FACE('',(#43),#390,.T.);
#396=ADVANCED_FACE('',(#44),#16,.T.);
#397=ADVANCED_FACE('',(#45),#20,.T.);
#398=ADVANCED_FACE('',(#46),#21,.T.);
#399=ADVANCED_FACE('',(#47),#22,.T.);
#400=ADVANCED_FACE('',(#48),#23,.T.);
#401=ADVANCED_FACE('',(#49),#24,.T.);
#402=ADVANCED_FACE('',(#50),#25,.T.);
#403=ADVANCED_FACE('',(#51),#26,.T.);
#404=ADVANCED_FACE('',(#52),#27,.T.);
#405=ADVANCED_FACE('',(#53),#28,.T.);
#406=ADVANCED_FACE('',(#54),#29,.T.);
#407=ADVANCED_FACE('',(#55,#18),#30,.T.);
#408=ADVANCED_FACE('',(#56),#31,.T.);
#409=ADVANCED_FACE('',(#57),#32,.T.);
#410=ADVANCED_FACE('',(#58),#33,.T.);
#411=ADVANCED_FACE('',(#59),#34,.T.);
#412=ADVANCED_FACE('',(#60),#35,.T.);
#413=ADVANCED_FACE('',(#61),#36,.T.);
#414=ADVANCED_FACE('',(#62),#37,.T.);
#415=ADVANCED_FACE('',(#63),#391,.F.);
#416=ADVANCED_FACE('',(#64),#38,.T.);
#417=ADVANCED_FACE('',(#65),#39,.T.);
#418=CLOSED_SHELL('',(#392,#393,#394,#395,#396,#397,#398,#399,#400,#401,
#402,#403,#404,#405,#406,#407,#408,#409,#410,#411,#412,#413,#414,#415,#416,
#417));
#419=DERIVED_UNIT_ELEMENT(#421,1.);
#420=DERIVED_UNIT_ELEMENT(#698,-3.);
#421=(
MASS_UNIT()
NAMED_UNIT(*)
SI_UNIT(.KILO.,.GRAM.)
);
#422=DERIVED_UNIT((#419,#420));
#423=MEASURE_REPRESENTATION_ITEM('density measure',
POSITIVE_RATIO_MEASURE(8490.),#422);
#424=PROPERTY_DEFINITION_REPRESENTATION(#429,#426);
#425=PROPERTY_DEFINITION_REPRESENTATION(#430,#427);
#426=REPRESENTATION('material name',(#428),#695);
#427=REPRESENTATION('density',(#423),#695);
#428=DESCRIPTIVE_REPRESENTATION_ITEM('Brass','Brass');
#429=PROPERTY_DEFINITION('material property','material name',#705);
#430=PROPERTY_DEFINITION('material property','density of part',#705);
#431=AXIS2_PLACEMENT_3D('',#580,#465,#466);
#432=AXIS2_PLACEMENT_3D('',#581,#467,#468);
#433=AXIS2_PLACEMENT_3D('',#583,#469,#470);
#434=AXIS2_PLACEMENT_3D('',#587,#472,#473);
#435=AXIS2_PLACEMENT_3D('',#588,#474,#475);
#436=AXIS2_PLACEMENT_3D('',#589,#476,#477);
#437=AXIS2_PLACEMENT_3D('',#602,#484,#485);
#438=AXIS2_PLACEMENT_3D('',#605,#487,#488);
#439=AXIS2_PLACEMENT_3D('',#606,#489,#490);
#440=AXIS2_PLACEMENT_3D('',#608,#491,#492);
#441=AXIS2_PLACEMENT_3D('',#611,#494,#495);
#442=AXIS2_PLACEMENT_3D('',#612,#496,#497);
#443=AXIS2_PLACEMENT_3D('',#615,#499,#500);
#444=AXIS2_PLACEMENT_3D('',#616,#501,#502);
#445=AXIS2_PLACEMENT_3D('',#617,#503,#504);
#446=AXIS2_PLACEMENT_3D('',#626,#509,#510);
#447=AXIS2_PLACEMENT_3D('',#632,#514,#515);
#448=AXIS2_PLACEMENT_3D('',#638,#519,#520);
#449=AXIS2_PLACEMENT_3D('',#644,#524,#525);
#450=AXIS2_PLACEMENT_3D('',#650,#529,#530);
#451=AXIS2_PLACEMENT_3D('',#653,#533,#534);
#452=AXIS2_PLACEMENT_3D('',#659,#538,#539);
#453=AXIS2_PLACEMENT_3D('',#663,#542,#543);
#454=AXIS2_PLACEMENT_3D('',#667,#546,#547);
#455=AXIS2_PLACEMENT_3D('',#668,#548,#549);
#456=AXIS2_PLACEMENT_3D('',#673,#553,#554);
#457=AXIS2_PLACEMENT_3D('',#677,#557,#558);
#458=AXIS2_PLACEMENT_3D('',#680,#561,#562);
#459=AXIS2_PLACEMENT_3D('',#682,#564,#565);
#460=AXIS2_PLACEMENT_3D('',#684,#567,#568);
#461=AXIS2_PLACEMENT_3D('',#685,#569,#570);
#462=AXIS2_PLACEMENT_3D('',#687,#572,#573);
#463=AXIS2_PLACEMENT_3D('',#690,#575,#576);
#464=AXIS2_PLACEMENT_3D('',#692,#578,#579);
#465=DIRECTION('axis',(0.,0.,1.));
#466=DIRECTION('refdir',(1.,0.,0.));
#467=DIRECTION('center_axis',(0.,-1.,0.));
#468=DIRECTION('ref_axis',(0.,0.,1.));
#469=DIRECTION('center_axis',(0.,-1.,0.));
#470=DIRECTION('ref_axis',(0.,0.,1.));
#471=DIRECTION('',(-8.65956056235493E-17,0.707106781186548,0.707106781186548));
#472=DIRECTION('center_axis',(0.,1.,0.));
#473=DIRECTION('ref_axis',(0.,0.,1.));
#474=DIRECTION('center_axis',(0.,1.,0.));
#475=DIRECTION('ref_axis',(0.,0.,1.));
#476=DIRECTION('center_axis',(0.,1.,0.));
#477=DIRECTION('ref_axis',(1.,0.,0.));
#478=DIRECTION('',(1.,0.,3.84592537276713E-15));
#479=DIRECTION('',(0.5,0.,0.866025403784438));
#480=DIRECTION('',(-0.500000000000002,0.,0.866025403784437));
#481=DIRECTION('',(-1.,0.,-3.84592537276713E-15));
#482=DIRECTION('',(-0.500000000000001,0.,-0.866025403784438));
#483=DIRECTION('',(0.500000000000001,0.,-0.866025403784438));
#484=DIRECTION('center_axis',(0.,1.,0.));
#485=DIRECTION('ref_axis',(0.,0.,-1.));
#486=DIRECTION('',(0.,1.,0.));
#487=DIRECTION('center_axis',(0.,1.,0.));
#488=DIRECTION('ref_axis',(0.,0.,-1.));
#489=DIRECTION('center_axis',(0.,-1.,2.22044604925031E-16));
#490=DIRECTION('ref_axis',(1.,0.,0.));
#491=DIRECTION('center_axis',(0.,-1.,2.22044604925031E-16));
#492=DIRECTION('ref_axis',(1.,0.,0.));
#493=DIRECTION('',(-0.707106781186547,-0.707106781186548,2.43604851491927E-16));
#494=DIRECTION('center_axis',(0.,1.,-2.22044604925031E-16));
#495=DIRECTION('ref_axis',(1.,0.,0.));
#496=DIRECTION('center_axis',(0.,1.,-2.22044604925031E-16));
#497=DIRECTION('ref_axis',(1.,0.,0.));
#498=DIRECTION('',(0.,-1.,2.22044604925031E-16));
#499=DIRECTION('center_axis',(0.,-1.,0.));
#500=DIRECTION('ref_axis',(1.,0.,0.));
#501=DIRECTION('center_axis',(0.,1.,-2.22044604925031E-16));
#502=DIRECTION('ref_axis',(1.,0.,0.));
#503=DIRECTION('center_axis',(2.71947991102104E-15,0.707106781186548,-0.707106781186548));
#504=DIRECTION('ref_axis',(-1.,0.,-3.84592537276713E-15));
#505=DIRECTION('',(1.,0.,3.84592537276713E-15));
#506=DIRECTION('',(0.377964473009227,-0.654653670707978,-0.654653670707976));
#507=DIRECTION('',(-1.,0.,-3.84592537276713E-15));
#508=DIRECTION('',(-0.377964473009224,-0.654653670707977,-0.654653670707979));
#509=DIRECTION('center_axis',(0.612372435695795,0.707106781186547,-0.353553390593275));
#510=DIRECTION('ref_axis',(-0.500000000000001,0.,-0.866025403784438));
#511=DIRECTION('',(0.500000000000001,0.,0.866025403784438));
#512=DIRECTION('',(0.755928946018454,-0.654653670707978,9.08514472969215E-16));
#513=DIRECTION('',(-0.500000000000001,0.,-0.866025403784438));
#514=DIRECTION('center_axis',(0.612372435695794,0.707106781186547,0.353553390593275));
#515=DIRECTION('ref_axis',(0.500000000000001,0.,-0.866025403784438));
#516=DIRECTION('',(-0.500000000000001,0.,0.866025403784438));
#517=DIRECTION('',(0.377964473009225,-0.654653670707977,0.654653670707979));
#518=DIRECTION('',(0.500000000000001,0.,-0.866025403784438));
#519=DIRECTION('center_axis',(-2.71947991102104E-15,0.707106781186548,0.707106781186548));
#520=DIRECTION('ref_axis',(1.,0.,3.84592537276713E-15));
#521=DIRECTION('',(-1.,0.,-3.84592537276713E-15));
#522=DIRECTION('',(-0.377964473009228,-0.654653670707979,0.654653670707975));
#523=DIRECTION('',(1.,0.,3.84592537276713E-15));
#524=DIRECTION('center_axis',(-0.612372435695795,0.707106781186547,0.353553390593274));
#525=DIRECTION('ref_axis',(0.5,0.,0.866025403784438));
#526=DIRECTION('',(0.5,0.,0.866025403784438));
#527=DIRECTION('',(-0.5,0.,-0.866025403784438));
#528=DIRECTION('',(-0.755928946018454,-0.654653670707977,-1.81702894593843E-15));
#529=DIRECTION('center_axis',(-0.612372435695794,0.707106781186547,-0.353553390593275));
#530=DIRECTION('ref_axis',(-0.500000000000002,0.,0.866025403784437));
#531=DIRECTION('',(-0.500000000000002,0.,0.866025403784437));
#532=DIRECTION('',(0.500000000000002,0.,-0.866025403784437));
#533=DIRECTION('center_axis',(-0.866025403784438,0.,0.5));
#534=DIRECTION('ref_axis',(0.5,0.,0.866025403784438));
#535=DIRECTION('',(0.,1.,0.));
#536=DIRECTION('',(-0.5,0.,-0.866025403784438));
#537=DIRECTION('',(0.,1.,0.));
#538=DIRECTION('center_axis',(-0.866025403784437,0.,-0.500000000000002));
#539=DIRECTION('ref_axis',(-0.500000000000002,0.,0.866025403784437));
#540=DIRECTION('',(0.,1.,0.));
#541=DIRECTION('',(0.500000000000002,0.,-0.866025403784437));
#542=DIRECTION('center_axis',(3.84592537276713E-15,0.,-1.));
#543=DIRECTION('ref_axis',(-1.,0.,-3.84592537276713E-15));
#544=DIRECTION('',(0.,1.,0.));
#545=DIRECTION('',(1.,0.,3.84592537276713E-15));
#546=DIRECTION('center_axis',(0.,1.,0.));
#547=DIRECTION('ref_axis',(0.,0.,1.));
#548=DIRECTION('center_axis',(-2.71947991102104E-15,-0.707106781186548,
0.707106781186547));
#549=DIRECTION('ref_axis',(1.,0.,3.84592537276713E-15));
#550=DIRECTION('',(0.377964473009225,0.654653670707977,0.654653670707979));
#551=DIRECTION('',(-1.,0.,-3.84592537276713E-15));
#552=DIRECTION('',(0.377964473009228,-0.654653670707978,-0.654653670707975));
#553=DIRECTION('center_axis',(0.612372435695794,-0.707106781186548,0.353553390593274));
#554=DIRECTION('ref_axis',(0.500000000000001,0.,-0.866025403784438));
#555=DIRECTION('',(-0.500000000000001,0.,0.866025403784438));
#556=DIRECTION('',(0.755928946018454,0.654653670707978,4.54257236484608E-16));
#557=DIRECTION('center_axis',(0.612372435695795,-0.707106781186547,-0.353553390593275));
#558=DIRECTION('ref_axis',(-0.500000000000001,0.,-0.866025403784438));
#559=DIRECTION('',(0.500000000000001,0.,0.866025403784438));
#560=DIRECTION('',(0.377964473009226,0.654653670707978,-0.654653670707977));
#561=DIRECTION('center_axis',(-0.612372435695795,-0.707106781186547,0.353553390593274));
#562=DIRECTION('ref_axis',(0.5,0.,0.866025403784438));
#563=DIRECTION('',(-0.755928946018455,0.654653670707977,-9.08514472969214E-16));
#564=DIRECTION('center_axis',(2.71947991102104E-15,-0.707106781186548,-0.707106781186547));
#565=DIRECTION('ref_axis',(-1.,0.,-3.84592537276713E-15));
#566=DIRECTION('',(-0.377964473009225,0.654653670707977,-0.654653670707979));
#567=DIRECTION('center_axis',(-0.612372435695794,-0.707106781186548,-0.353553390593275));
#568=DIRECTION('ref_axis',(-0.500000000000002,0.,0.866025403784437));
#569=DIRECTION('center_axis',(-3.84592537276713E-15,0.,1.));
#570=DIRECTION('ref_axis',(1.,0.,3.84592537276713E-15));
#571=DIRECTION('',(0.,1.,0.));
#572=DIRECTION('center_axis',(0.,-1.,0.));
#573=DIRECTION('ref_axis',(0.,0.,-1.));
#574=DIRECTION('',(-1.04972719113862E-16,0.515038074910054,-0.857167300702112));
#575=DIRECTION('center_axis',(0.866025403784438,0.,-0.500000000000001));
#576=DIRECTION('ref_axis',(-0.500000000000001,0.,-0.866025403784438));
#577=DIRECTION('',(0.,1.,0.));
#578=DIRECTION('center_axis',(0.866025403784438,0.,0.500000000000001));
#579=DIRECTION('ref_axis',(0.500000000000001,0.,-0.866025403784438));
#580=CARTESIAN_POINT('',(0.,0.,0.));
#581=CARTESIAN_POINT('Origin',(0.,0.1,0.));
#582=CARTESIAN_POINT('',(1.7934952373513E-16,0.,-1.4645));
#583=CARTESIAN_POINT('Origin',(0.,0.,0.));
#584=CARTESIAN_POINT('',(-1.54856587752183E-16,0.2,-1.2645));
#585=CARTESIAN_POINT('',(1.67103055743656E-16,0.1,-1.3645));
#586=CARTESIAN_POINT('',(1.54856587752183E-16,0.2,1.2645));
#587=CARTESIAN_POINT('Origin',(0.,0.2,0.));
#588=CARTESIAN_POINT('Origin',(0.,0.2,0.));
#589=CARTESIAN_POINT('Origin',(-2.22044604925031E-15,0.,-1.11022302462516E-15));
#590=CARTESIAN_POINT('',(-1.61658075373095,0.,2.8));
#591=CARTESIAN_POINT('',(1.61658075373095,0.,2.80000000000001));
#592=CARTESIAN_POINT('',(-0.866025403784446,0.,2.8));
#593=CARTESIAN_POINT('',(-3.23316150746191,0.,-1.09634523681734E-14));
#594=CARTESIAN_POINT('',(-2.85788383248865,0.,0.649999999999994));
#595=CARTESIAN_POINT('',(-1.61658075373095,0.,-2.80000000000001));
#596=CARTESIAN_POINT('',(-1.99185842870421,0.,-2.15000000000001));
#597=CARTESIAN_POINT('',(1.61658075373095,0.,-2.8));
#598=CARTESIAN_POINT('',(0.866025403784442,0.,-2.8));
#599=CARTESIAN_POINT('',(3.23316150746191,0.,5.55111512312578E-15));
#600=CARTESIAN_POINT('',(2.85788383248865,0.,-0.649999999999999));
#601=CARTESIAN_POINT('',(1.99185842870421,0.,2.15000000000001));
#602=CARTESIAN_POINT('Origin',(0.,4.,0.));
#603=CARTESIAN_POINT('',(1.54856587752183E-16,8.,1.2645));
#604=CARTESIAN_POINT('',(1.54856587752183E-16,4.,1.2645));
#605=CARTESIAN_POINT('Origin',(0.,8.,0.));
#606=CARTESIAN_POINT('Origin',(0.,15.9,-1.31006316905768E-15));
#607=CARTESIAN_POINT('',(-1.2635,16.,-1.48700175262246E-15));
#608=CARTESIAN_POINT('Origin',(0.,16.,-1.33226762955019E-15));
#609=CARTESIAN_POINT('',(-1.4635,15.8,-1.10863164950997E-15));
#610=CARTESIAN_POINT('',(-1.3635,15.9,-1.14308257799394E-15));
#611=CARTESIAN_POINT('Origin',(0.,15.8,-1.28785870856518E-15));
#612=CARTESIAN_POINT('Origin',(0.,13.,-6.66133814775094E-16));
#613=CARTESIAN_POINT('',(-1.4635,10.,-1.79227059055215E-16));
#614=CARTESIAN_POINT('',(-1.4635,13.,-4.86906755719879E-16));
#615=CARTESIAN_POINT('Origin',(0.,10.,0.));
#616=CARTESIAN_POINT('Origin',(0.,16.,-1.33226762955019E-15));
#617=CARTESIAN_POINT('Origin',(0.866025403784442,9.9,-2.9));
#618=CARTESIAN_POINT('',(-1.61658075373095,10.,-2.80000000000001));
#619=CARTESIAN_POINT('',(1.61658075373095,10.,-2.8));
#620=CARTESIAN_POINT('',(0.866025403784442,10.,-2.8));
#621=CARTESIAN_POINT('',(1.73205080756888,9.8,-3.));
#622=CARTESIAN_POINT('',(1.61658075373095,10.,-2.8));
#623=CARTESIAN_POINT('',(-1.73205080756887,9.8,-3.00000000000001));
#624=CARTESIAN_POINT('',(0.866025403784443,9.8,-3.));
#625=CARTESIAN_POINT('',(-1.61658075373095,10.,-2.80000000000001));
#626=CARTESIAN_POINT('Origin',(2.94448637286709,9.9,-0.699999999999999));
#627=CARTESIAN_POINT('',(3.23316150746191,10.,4.9960036108132E-15));
#628=CARTESIAN_POINT('',(2.85788383248865,10.,-0.649999999999999));
#629=CARTESIAN_POINT('',(3.46410161513776,9.8,5.55111512312578E-15));
#630=CARTESIAN_POINT('',(3.23316150746191,10.,5.27355936696949E-15));
#631=CARTESIAN_POINT('',(3.03108891324554,9.8,-0.749999999999999));
#632=CARTESIAN_POINT('Origin',(2.07846096908265,9.9,2.20000000000001));
#633=CARTESIAN_POINT('',(1.61658075373095,10.,2.80000000000001));
#634=CARTESIAN_POINT('',(1.99185842870421,10.,2.15000000000001));
#635=CARTESIAN_POINT('',(1.73205080756887,9.8,3.00000000000001));
#636=CARTESIAN_POINT('',(1.61658075373095,10.,2.80000000000001));
#637=CARTESIAN_POINT('',(2.1650635094611,9.8,2.25000000000001));
#638=CARTESIAN_POINT('Origin',(-0.866025403784446,9.9,2.9));
#639=CARTESIAN_POINT('',(-1.61658075373095,10.,2.8));
#640=CARTESIAN_POINT('',(-0.866025403784446,10.,2.8));
#641=CARTESIAN_POINT('',(-1.73205080756888,9.8,3.));
#642=CARTESIAN_POINT('',(-1.61658075373095,10.,2.8));
#643=CARTESIAN_POINT('',(-0.866025403784446,9.8,3.));
#644=CARTESIAN_POINT('Origin',(-2.9444863728671,9.9,0.699999999999994));
#645=CARTESIAN_POINT('',(-3.46410161513776,9.8,-1.11022302462516E-14));
#646=CARTESIAN_POINT('',(-3.03108891324554,9.8,0.749999999999994));
#647=CARTESIAN_POINT('',(-3.23316150746191,10.,-1.0547118733939E-14));
#648=CARTESIAN_POINT('',(-2.85788383248865,10.,0.649999999999994));
#649=CARTESIAN_POINT('',(-3.23316150746191,10.,-1.0547118733939E-14));
#650=CARTESIAN_POINT('Origin',(-2.07846096908265,9.9,-2.20000000000001));
#651=CARTESIAN_POINT('',(-2.1650635094611,9.8,-2.25000000000001));
#652=CARTESIAN_POINT('',(-1.99185842870421,10.,-2.15000000000001));
#653=CARTESIAN_POINT('Origin',(-3.46410161513776,0.,-1.11022302462516E-14));
#654=CARTESIAN_POINT('',(-3.46410161513776,0.2,-1.11022302462516E-14));
#655=CARTESIAN_POINT('',(-3.46410161513776,0.,-1.11022302462516E-14));
#656=CARTESIAN_POINT('',(-1.73205080756888,0.2,3.));
#657=CARTESIAN_POINT('',(-3.03108891324554,0.2,0.749999999999994));
#658=CARTESIAN_POINT('',(-1.73205080756888,0.,3.));
#659=CARTESIAN_POINT('Origin',(-1.73205080756887,0.,-3.00000000000001));
#660=CARTESIAN_POINT('',(-1.73205080756887,0.2,-3.00000000000001));
#661=CARTESIAN_POINT('',(-1.73205080756887,0.,-3.00000000000001));
#662=CARTESIAN_POINT('',(-2.1650635094611,0.2,-2.25000000000001));
#663=CARTESIAN_POINT('Origin',(1.73205080756888,0.,-3.));
#664=CARTESIAN_POINT('',(1.73205080756888,0.2,-3.));
#665=CARTESIAN_POINT('',(1.73205080756888,0.,-3.));
#666=CARTESIAN_POINT('',(0.866025403784443,0.2,-3.));
#667=CARTESIAN_POINT('Origin',(-2.22044604925031E-15,10.,-1.11022302462516E-15));
#668=CARTESIAN_POINT('Origin',(-0.866025403784446,0.1,2.9));
#669=CARTESIAN_POINT('',(1.73205080756887,0.2,3.00000000000001));
#670=CARTESIAN_POINT('',(1.61658075373095,0.,2.80000000000001));
#671=CARTESIAN_POINT('',(-0.866025403784446,0.2,3.));
#672=CARTESIAN_POINT('',(-1.73205080756888,0.2,3.));
#673=CARTESIAN_POINT('Origin',(2.07846096908265,0.1,2.20000000000001));
#674=CARTESIAN_POINT('',(3.46410161513776,0.2,5.55111512312578E-15));
#675=CARTESIAN_POINT('',(2.1650635094611,0.2,2.25000000000001));
#676=CARTESIAN_POINT('',(3.23316150746191,0.,5.41233724504764E-15));
#677=CARTESIAN_POINT('Origin',(2.94448637286709,0.1,-0.699999999999999));
#678=CARTESIAN_POINT('',(3.03108891324554,0.2,-0.749999999999999));
#679=CARTESIAN_POINT('',(1.61658075373095,0.,-2.8));
#680=CARTESIAN_POINT('Origin',(-2.9444863728671,0.1,0.699999999999994));
#681=CARTESIAN_POINT('',(-3.23316150746191,0.,-1.08246744900953E-14));
#682=CARTESIAN_POINT('Origin',(0.866025403784442,0.1,-2.9));
#683=CARTESIAN_POINT('',(-1.61658075373095,0.,-2.80000000000001));
#684=CARTESIAN_POINT('Origin',(-2.07846096908265,0.1,-2.20000000000001));
#685=CARTESIAN_POINT('Origin',(-1.73205080756888,0.,3.));
#686=CARTESIAN_POINT('',(1.73205080756887,0.,3.00000000000001));
#687=CARTESIAN_POINT('Origin',(0.,8.37989412638018,0.));
#688=CARTESIAN_POINT('',(0.,8.75978825276035,0.));
#689=CARTESIAN_POINT('',(7.74282938760914E-17,8.37989412638018,0.63225));
#690=CARTESIAN_POINT('Origin',(3.46410161513776,0.,5.55111512312578E-15));
#691=CARTESIAN_POINT('',(3.46410161513776,0.,5.55111512312578E-15));
#692=CARTESIAN_POINT('Origin',(1.73205080756887,0.,3.00000000000001));
#693=UNCERTAINTY_MEASURE_WITH_UNIT(LENGTH_MEASURE(0.01),#697,
'DISTANCE_ACCURACY_VALUE',
'Maximum model space distance between geometric entities at asserted c
onnectivities');
#694=UNCERTAINTY_MEASURE_WITH_UNIT(LENGTH_MEASURE(0.01),#697,
'DISTANCE_ACCURACY_VALUE',
'Maximum model space distance between geometric entities at asserted c
onnectivities');
#695=(
GEOMETRIC_REPRESENTATION_CONTEXT(3)
GLOBAL_UNCERTAINTY_ASSIGNED_CONTEXT((#693))
GLOBAL_UNIT_ASSIGNED_CONTEXT((#697,#699,#700))
REPRESENTATION_CONTEXT('','3D')
);
#696=(
GEOMETRIC_REPRESENTATION_CONTEXT(3)
GLOBAL_UNCERTAINTY_ASSIGNED_CONTEXT((#694))
GLOBAL_UNIT_ASSIGNED_CONTEXT((#697,#699,#700))
REPRESENTATION_CONTEXT('','3D')
);
#697=(
LENGTH_UNIT()
NAMED_UNIT(*)
SI_UNIT(.MILLI.,.METRE.)
);
#698=(
LENGTH_UNIT()
NAMED_UNIT(*)
SI_UNIT($,.METRE.)
);
#699=(
NAMED_UNIT(*)
PLANE_ANGLE_UNIT()
SI_UNIT($,.RADIAN.)
);
#700=(
NAMED_UNIT(*)
SI_UNIT($,.STERADIAN.)
SOLID_ANGLE_UNIT()
);
#701=SHAPE_DEFINITION_REPRESENTATION(#702,#703);
#702=PRODUCT_DEFINITION_SHAPE('',$,#705);
#703=SHAPE_REPRESENTATION('',(#431),#695);
#704=PRODUCT_DEFINITION_CONTEXT('part definition',#709,'design');
#705=PRODUCT_DEFINITION('M3 x 10 Brass Standoff',
'M3 x 10 Brass Standoff v1',#706,#704);
#706=PRODUCT_DEFINITION_FORMATION('',$,#711);
#707=PRODUCT_RELATED_PRODUCT_CATEGORY('M3 x 10 Brass Standoff v1',
'M3 x 10 Brass Standoff v1',(#711));
#708=APPLICATION_PROTOCOL_DEFINITION('international standard',
'automotive_design',2009,#709);
#709=APPLICATION_CONTEXT(
'Core Data for Automotive Mechanical Design Process');
#710=PRODUCT_CONTEXT('part definition',#709,'mechanical');
#711=PRODUCT('M3 x 10 Brass Standoff','M3 x 10 Brass Standoff v1',$,(#710));
#712=PRESENTATION_STYLE_ASSIGNMENT((#713));
#713=SURFACE_STYLE_USAGE(.BOTH.,#714);
#714=SURFACE_SIDE_STYLE('',(#715));
#715=SURFACE_STYLE_FILL_AREA(#716);
#716=FILL_AREA_STYLE('Brass - Polished',(#717));
#717=FILL_AREA_STYLE_COLOUR('Brass - Polished',#718);
#718=COLOUR_RGB('Brass - Polished',0.952941176470588,0.796078431372549,
0.486274509803922);
ENDSEC;
END-ISO-10303-21;
