ISO-10303-21;
HEADER;
/* Generated by software containing ST-Developer
 * from STEP Tools, Inc. (www.steptools.com) 
 */

FILE_DESCRIPTION(
/* description */ (''),
/* implementation_level */ '2;1');

FILE_NAME(
/* name */ 'MesaDePruebas.stp',
/* time_stamp */ '2025-09-23T23:09:50-05:00',
/* author */ ('HP'),
/* organization */ (''),
/* preprocessor_version */ 'ST-DEVELOPER v20',
/* originating_system */ 'Autodesk Inventor 2025',
/* authorisation */ '');

FILE_SCHEMA (('AUTOMOTIVE_DESIGN { 1 0 10303 214 3 1 1 }'));
ENDSEC;

DATA;
#10=MECHANICAL_DESIGN_GEOMETRIC_PRESENTATION_REPRESENTATION('',(#13),#694);
#11=SHAPE_REPRESENTATION_RELATIONSHIP('SRR','None',#701,#12);
#12=ADVANCED_BREP_SHAPE_REPRESENTATION('',(#14),#693);
#13=STYLED_ITEM('',(#710),#14);
#14=MANIFOLD_SOLID_BREP('S\X\F3lido1',#409);
#15=FACE_BOUND('',#65,.T.);
#16=FACE_BOUND('',#66,.T.);
#17=FACE_BOUND('',#67,.T.);
#18=FACE_BOUND('',#68,.T.);
#19=FACE_BOUND('',#82,.T.);
#20=FACE_BOUND('',#83,.T.);
#21=FACE_BOUND('',#84,.T.);
#22=FACE_BOUND('',#85,.T.);
#23=FACE_BOUND('',#86,.T.);
#24=FACE_BOUND('',#87,.T.);
#25=FACE_BOUND('',#89,.T.);
#26=FACE_BOUND('',#90,.T.);
#27=PLANE('',#444);
#28=PLANE('',#445);
#29=PLANE('',#446);
#30=PLANE('',#447);
#31=PLANE('',#451);
#32=PLANE('',#458);
#33=PLANE('',#462);
#34=PLANE('',#463);
#35=PLANE('',#464);
#36=PLANE('',#465);
#37=PLANE('',#466);
#38=PLANE('',#467);
#39=FACE_OUTER_BOUND('',#59,.T.);
#40=FACE_OUTER_BOUND('',#60,.T.);
#41=FACE_OUTER_BOUND('',#61,.T.);
#42=FACE_OUTER_BOUND('',#62,.T.);
#43=FACE_OUTER_BOUND('',#63,.T.);
#44=FACE_OUTER_BOUND('',#64,.T.);
#45=FACE_OUTER_BOUND('',#69,.T.);
#46=FACE_OUTER_BOUND('',#70,.T.);
#47=FACE_OUTER_BOUND('',#71,.T.);
#48=FACE_OUTER_BOUND('',#72,.T.);
#49=FACE_OUTER_BOUND('',#73,.T.);
#50=FACE_OUTER_BOUND('',#74,.T.);
#51=FACE_OUTER_BOUND('',#75,.T.);
#52=FACE_OUTER_BOUND('',#76,.T.);
#53=FACE_OUTER_BOUND('',#77,.T.);
#54=FACE_OUTER_BOUND('',#78,.T.);
#55=FACE_OUTER_BOUND('',#79,.T.);
#56=FACE_OUTER_BOUND('',#80,.T.);
#57=FACE_OUTER_BOUND('',#81,.T.);
#58=FACE_OUTER_BOUND('',#88,.T.);
#59=EDGE_LOOP('',(#273,#274,#275,#276));
#60=EDGE_LOOP('',(#277,#278,#279,#280));
#61=EDGE_LOOP('',(#281,#282,#283,#284));
#62=EDGE_LOOP('',(#285,#286,#287,#288));
#63=EDGE_LOOP('',(#289,#290,#291,#292));
#64=EDGE_LOOP('',(#293,#294,#295,#296));
#65=EDGE_LOOP('',(#297));
#66=EDGE_LOOP('',(#298));
#67=EDGE_LOOP('',(#299));
#68=EDGE_LOOP('',(#300));
#69=EDGE_LOOP('',(#301,#302,#303,#304));
#70=EDGE_LOOP('',(#305,#306,#307,#308));
#71=EDGE_LOOP('',(#309,#310,#311,#312));
#72=EDGE_LOOP('',(#313,#314,#315,#316));
#73=EDGE_LOOP('',(#317,#318,#319,#320));
#74=EDGE_LOOP('',(#321,#322,#323,#324));
#75=EDGE_LOOP('',(#325,#326,#327,#328));
#76=EDGE_LOOP('',(#329,#330,#331,#332));
#77=EDGE_LOOP('',(#333,#334,#335,#336));
#78=EDGE_LOOP('',(#337,#338,#339,#340,#341,#342));
#79=EDGE_LOOP('',(#343,#344,#345,#346,#347,#348));
#80=EDGE_LOOP('',(#349,#350,#351,#352));
#81=EDGE_LOOP('',(#353,#354,#355,#356));
#82=EDGE_LOOP('',(#357));
#83=EDGE_LOOP('',(#358));
#84=EDGE_LOOP('',(#359));
#85=EDGE_LOOP('',(#360));
#86=EDGE_LOOP('',(#361,#362,#363,#364));
#87=EDGE_LOOP('',(#365,#366,#367,#368));
#88=EDGE_LOOP('',(#369,#370,#371,#372));
#89=EDGE_LOOP('',(#373,#374,#375,#376));
#90=EDGE_LOOP('',(#377,#378,#379,#380));
#91=LINE('',#585,#129);
#92=LINE('',#591,#130);
#93=LINE('',#597,#131);
#94=LINE('',#603,#132);
#95=LINE('',#608,#133);
#96=LINE('',#610,#134);
#97=LINE('',#612,#135);
#98=LINE('',#613,#136);
#99=LINE('',#616,#137);
#100=LINE('',#618,#138);
#101=LINE('',#619,#139);
#102=LINE('',#622,#140);
#103=LINE('',#624,#141);
#104=LINE('',#625,#142);
#105=LINE('',#629,#143);
#106=LINE('',#631,#144);
#107=LINE('',#633,#145);
#108=LINE('',#634,#146);
#109=LINE('',#639,#147);
#110=LINE('',#643,#148);
#111=LINE('',#645,#149);
#112=LINE('',#646,#150);
#113=LINE('',#655,#151);
#114=LINE('',#658,#152);
#115=LINE('',#661,#153);
#116=LINE('',#663,#154);
#117=LINE('',#664,#155);
#118=LINE('',#669,#156);
#119=LINE('',#672,#157);
#120=LINE('',#673,#158);
#121=LINE('',#676,#159);
#122=LINE('',#678,#160);
#123=LINE('',#679,#161);
#124=LINE('',#682,#162);
#125=LINE('',#684,#163);
#126=LINE('',#685,#164);
#127=LINE('',#687,#165);
#128=LINE('',#688,#166);
#129=VECTOR('',#474,2.);
#130=VECTOR('',#481,2.);
#131=VECTOR('',#488,2.);
#132=VECTOR('',#495,2.);
#133=VECTOR('',#500,10.);
#134=VECTOR('',#501,10.);
#135=VECTOR('',#502,10.);
#136=VECTOR('',#503,10.);
#137=VECTOR('',#506,10.);
#138=VECTOR('',#507,10.);
#139=VECTOR('',#508,10.);
#140=VECTOR('',#511,10.);
#141=VECTOR('',#512,10.);
#142=VECTOR('',#513,10.);
#143=VECTOR('',#516,10.);
#144=VECTOR('',#517,10.);
#145=VECTOR('',#518,10.);
#146=VECTOR('',#519,10.);
#147=VECTOR('',#524,10.);
#148=VECTOR('',#529,10.);
#149=VECTOR('',#530,10.);
#150=VECTOR('',#531,10.);
#151=VECTOR('',#542,10.);
#152=VECTOR('',#545,10.);
#153=VECTOR('',#548,10.);
#154=VECTOR('',#549,10.);
#155=VECTOR('',#550,10.);
#156=VECTOR('',#555,10.);
#157=VECTOR('',#560,10.);
#158=VECTOR('',#561,10.);
#159=VECTOR('',#564,10.);
#160=VECTOR('',#565,10.);
#161=VECTOR('',#566,10.);
#162=VECTOR('',#569,10.);
#163=VECTOR('',#570,10.);
#164=VECTOR('',#571,10.);
#165=VECTOR('',#574,10.);
#166=VECTOR('',#575,10.);
#167=CIRCLE('',#433,2.);
#168=CIRCLE('',#434,2.);
#169=CIRCLE('',#436,2.);
#170=CIRCLE('',#437,2.);
#171=CIRCLE('',#439,2.);
#172=CIRCLE('',#440,2.);
#173=CIRCLE('',#442,2.);
#174=CIRCLE('',#443,2.);
#175=CIRCLE('',#449,2.24999999999999);
#176=CIRCLE('',#450,2.24999999999999);
#177=CIRCLE('',#453,2.24999999999998);
#178=CIRCLE('',#454,2.24999999999998);
#179=CIRCLE('',#456,2.25);
#180=CIRCLE('',#457,2.25);
#181=CIRCLE('',#460,2.24999999999998);
#182=CIRCLE('',#461,2.24999999999998);
#183=VERTEX_POINT('',#582);
#184=VERTEX_POINT('',#584);
#185=VERTEX_POINT('',#588);
#186=VERTEX_POINT('',#590);
#187=VERTEX_POINT('',#594);
#188=VERTEX_POINT('',#596);
#189=VERTEX_POINT('',#600);
#190=VERTEX_POINT('',#602);
#191=VERTEX_POINT('',#606);
#192=VERTEX_POINT('',#607);
#193=VERTEX_POINT('',#609);
#194=VERTEX_POINT('',#611);
#195=VERTEX_POINT('',#615);
#196=VERTEX_POINT('',#617);
#197=VERTEX_POINT('',#621);
#198=VERTEX_POINT('',#623);
#199=VERTEX_POINT('',#627);
#200=VERTEX_POINT('',#628);
#201=VERTEX_POINT('',#630);
#202=VERTEX_POINT('',#632);
#203=VERTEX_POINT('',#636);
#204=VERTEX_POINT('',#638);
#205=VERTEX_POINT('',#642);
#206=VERTEX_POINT('',#644);
#207=VERTEX_POINT('',#651);
#208=VERTEX_POINT('',#652);
#209=VERTEX_POINT('',#654);
#210=VERTEX_POINT('',#656);
#211=VERTEX_POINT('',#660);
#212=VERTEX_POINT('',#662);
#213=VERTEX_POINT('',#666);
#214=VERTEX_POINT('',#668);
#215=VERTEX_POINT('',#675);
#216=VERTEX_POINT('',#677);
#217=VERTEX_POINT('',#681);
#218=VERTEX_POINT('',#683);
#219=EDGE_CURVE('',#183,#183,#167,.T.);
#220=EDGE_CURVE('',#183,#184,#91,.T.);
#221=EDGE_CURVE('',#184,#184,#168,.T.);
#222=EDGE_CURVE('',#185,#185,#169,.T.);
#223=EDGE_CURVE('',#185,#186,#92,.T.);
#224=EDGE_CURVE('',#186,#186,#170,.T.);
#225=EDGE_CURVE('',#187,#187,#171,.T.);
#226=EDGE_CURVE('',#187,#188,#93,.T.);
#227=EDGE_CURVE('',#188,#188,#172,.T.);
#228=EDGE_CURVE('',#189,#189,#173,.T.);
#229=EDGE_CURVE('',#189,#190,#94,.T.);
#230=EDGE_CURVE('',#190,#190,#174,.T.);
#231=EDGE_CURVE('',#191,#192,#95,.T.);
#232=EDGE_CURVE('',#191,#193,#96,.T.);
#233=EDGE_CURVE('',#194,#193,#97,.T.);
#234=EDGE_CURVE('',#192,#194,#98,.T.);
#235=EDGE_CURVE('',#193,#195,#99,.T.);
#236=EDGE_CURVE('',#196,#195,#100,.T.);
#237=EDGE_CURVE('',#196,#194,#101,.T.);
#238=EDGE_CURVE('',#197,#195,#102,.T.);
#239=EDGE_CURVE('',#197,#198,#103,.T.);
#240=EDGE_CURVE('',#198,#196,#104,.T.);
#241=EDGE_CURVE('',#199,#200,#105,.T.);
#242=EDGE_CURVE('',#199,#201,#106,.T.);
#243=EDGE_CURVE('',#202,#201,#107,.T.);
#244=EDGE_CURVE('',#200,#202,#108,.T.);
#245=EDGE_CURVE('',#203,#199,#175,.T.);
#246=EDGE_CURVE('',#203,#204,#109,.T.);
#247=EDGE_CURVE('',#201,#204,#176,.T.);
#248=EDGE_CURVE('',#205,#203,#110,.T.);
#249=EDGE_CURVE('',#205,#206,#111,.T.);
#250=EDGE_CURVE('',#204,#206,#112,.T.);
#251=EDGE_CURVE('',#200,#205,#177,.T.);
#252=EDGE_CURVE('',#206,#202,#178,.T.);
#253=EDGE_CURVE('',#207,#208,#179,.T.);
#254=EDGE_CURVE('',#207,#209,#113,.T.);
#255=EDGE_CURVE('',#210,#209,#180,.T.);
#256=EDGE_CURVE('',#208,#210,#114,.T.);
#257=EDGE_CURVE('',#211,#207,#115,.T.);
#258=EDGE_CURVE('',#211,#212,#116,.T.);
#259=EDGE_CURVE('',#209,#212,#117,.T.);
#260=EDGE_CURVE('',#213,#211,#181,.T.);
#261=EDGE_CURVE('',#213,#214,#118,.T.);
#262=EDGE_CURVE('',#212,#214,#182,.T.);
#263=EDGE_CURVE('',#208,#213,#119,.T.);
#264=EDGE_CURVE('',#214,#210,#120,.T.);
#265=EDGE_CURVE('',#198,#215,#121,.T.);
#266=EDGE_CURVE('',#215,#216,#122,.T.);
#267=EDGE_CURVE('',#192,#216,#123,.T.);
#268=EDGE_CURVE('',#217,#197,#124,.T.);
#269=EDGE_CURVE('',#218,#191,#125,.T.);
#270=EDGE_CURVE('',#217,#218,#126,.T.);
#271=EDGE_CURVE('',#215,#217,#127,.T.);
#272=EDGE_CURVE('',#216,#218,#128,.T.);
#273=ORIENTED_EDGE('',*,*,#219,.F.);
#274=ORIENTED_EDGE('',*,*,#220,.T.);
#275=ORIENTED_EDGE('',*,*,#221,.F.);
#276=ORIENTED_EDGE('',*,*,#220,.F.);
#277=ORIENTED_EDGE('',*,*,#222,.F.);
#278=ORIENTED_EDGE('',*,*,#223,.T.);
#279=ORIENTED_EDGE('',*,*,#224,.F.);
#280=ORIENTED_EDGE('',*,*,#223,.F.);
#281=ORIENTED_EDGE('',*,*,#225,.F.);
#282=ORIENTED_EDGE('',*,*,#226,.T.);
#283=ORIENTED_EDGE('',*,*,#227,.F.);
#284=ORIENTED_EDGE('',*,*,#226,.F.);
#285=ORIENTED_EDGE('',*,*,#228,.F.);
#286=ORIENTED_EDGE('',*,*,#229,.T.);
#287=ORIENTED_EDGE('',*,*,#230,.F.);
#288=ORIENTED_EDGE('',*,*,#229,.F.);
#289=ORIENTED_EDGE('',*,*,#231,.F.);
#290=ORIENTED_EDGE('',*,*,#232,.T.);
#291=ORIENTED_EDGE('',*,*,#233,.F.);
#292=ORIENTED_EDGE('',*,*,#234,.F.);
#293=ORIENTED_EDGE('',*,*,#233,.T.);
#294=ORIENTED_EDGE('',*,*,#235,.T.);
#295=ORIENTED_EDGE('',*,*,#236,.F.);
#296=ORIENTED_EDGE('',*,*,#237,.T.);
#297=ORIENTED_EDGE('',*,*,#221,.T.);
#298=ORIENTED_EDGE('',*,*,#224,.T.);
#299=ORIENTED_EDGE('',*,*,#227,.T.);
#300=ORIENTED_EDGE('',*,*,#230,.T.);
#301=ORIENTED_EDGE('',*,*,#236,.T.);
#302=ORIENTED_EDGE('',*,*,#238,.F.);
#303=ORIENTED_EDGE('',*,*,#239,.T.);
#304=ORIENTED_EDGE('',*,*,#240,.T.);
#305=ORIENTED_EDGE('',*,*,#241,.F.);
#306=ORIENTED_EDGE('',*,*,#242,.T.);
#307=ORIENTED_EDGE('',*,*,#243,.F.);
#308=ORIENTED_EDGE('',*,*,#244,.F.);
#309=ORIENTED_EDGE('',*,*,#245,.F.);
#310=ORIENTED_EDGE('',*,*,#246,.T.);
#311=ORIENTED_EDGE('',*,*,#247,.F.);
#312=ORIENTED_EDGE('',*,*,#242,.F.);
#313=ORIENTED_EDGE('',*,*,#248,.F.);
#314=ORIENTED_EDGE('',*,*,#249,.T.);
#315=ORIENTED_EDGE('',*,*,#250,.F.);
#316=ORIENTED_EDGE('',*,*,#246,.F.);
#317=ORIENTED_EDGE('',*,*,#251,.F.);
#318=ORIENTED_EDGE('',*,*,#244,.T.);
#319=ORIENTED_EDGE('',*,*,#252,.F.);
#320=ORIENTED_EDGE('',*,*,#249,.F.);
#321=ORIENTED_EDGE('',*,*,#253,.F.);
#322=ORIENTED_EDGE('',*,*,#254,.T.);
#323=ORIENTED_EDGE('',*,*,#255,.F.);
#324=ORIENTED_EDGE('',*,*,#256,.F.);
#325=ORIENTED_EDGE('',*,*,#257,.F.);
#326=ORIENTED_EDGE('',*,*,#258,.T.);
#327=ORIENTED_EDGE('',*,*,#259,.F.);
#328=ORIENTED_EDGE('',*,*,#254,.F.);
#329=ORIENTED_EDGE('',*,*,#260,.F.);
#330=ORIENTED_EDGE('',*,*,#261,.T.);
#331=ORIENTED_EDGE('',*,*,#262,.F.);
#332=ORIENTED_EDGE('',*,*,#258,.F.);
#333=ORIENTED_EDGE('',*,*,#263,.F.);
#334=ORIENTED_EDGE('',*,*,#256,.T.);
#335=ORIENTED_EDGE('',*,*,#264,.F.);
#336=ORIENTED_EDGE('',*,*,#261,.F.);
#337=ORIENTED_EDGE('',*,*,#265,.T.);
#338=ORIENTED_EDGE('',*,*,#266,.T.);
#339=ORIENTED_EDGE('',*,*,#267,.F.);
#340=ORIENTED_EDGE('',*,*,#234,.T.);
#341=ORIENTED_EDGE('',*,*,#237,.F.);
#342=ORIENTED_EDGE('',*,*,#240,.F.);
#343=ORIENTED_EDGE('',*,*,#268,.T.);
#344=ORIENTED_EDGE('',*,*,#238,.T.);
#345=ORIENTED_EDGE('',*,*,#235,.F.);
#346=ORIENTED_EDGE('',*,*,#232,.F.);
#347=ORIENTED_EDGE('',*,*,#269,.F.);
#348=ORIENTED_EDGE('',*,*,#270,.F.);
#349=ORIENTED_EDGE('',*,*,#271,.T.);
#350=ORIENTED_EDGE('',*,*,#270,.T.);
#351=ORIENTED_EDGE('',*,*,#272,.F.);
#352=ORIENTED_EDGE('',*,*,#266,.F.);
#353=ORIENTED_EDGE('',*,*,#272,.T.);
#354=ORIENTED_EDGE('',*,*,#269,.T.);
#355=ORIENTED_EDGE('',*,*,#231,.T.);
#356=ORIENTED_EDGE('',*,*,#267,.T.);
#357=ORIENTED_EDGE('',*,*,#219,.T.);
#358=ORIENTED_EDGE('',*,*,#222,.T.);
#359=ORIENTED_EDGE('',*,*,#225,.T.);
#360=ORIENTED_EDGE('',*,*,#228,.T.);
#361=ORIENTED_EDGE('',*,*,#241,.T.);
#362=ORIENTED_EDGE('',*,*,#251,.T.);
#363=ORIENTED_EDGE('',*,*,#248,.T.);
#364=ORIENTED_EDGE('',*,*,#245,.T.);
#365=ORIENTED_EDGE('',*,*,#253,.T.);
#366=ORIENTED_EDGE('',*,*,#263,.T.);
#367=ORIENTED_EDGE('',*,*,#260,.T.);
#368=ORIENTED_EDGE('',*,*,#257,.T.);
#369=ORIENTED_EDGE('',*,*,#271,.F.);
#370=ORIENTED_EDGE('',*,*,#265,.F.);
#371=ORIENTED_EDGE('',*,*,#239,.F.);
#372=ORIENTED_EDGE('',*,*,#268,.F.);
#373=ORIENTED_EDGE('',*,*,#243,.T.);
#374=ORIENTED_EDGE('',*,*,#247,.T.);
#375=ORIENTED_EDGE('',*,*,#250,.T.);
#376=ORIENTED_EDGE('',*,*,#252,.T.);
#377=ORIENTED_EDGE('',*,*,#255,.T.);
#378=ORIENTED_EDGE('',*,*,#259,.T.);
#379=ORIENTED_EDGE('',*,*,#262,.T.);
#380=ORIENTED_EDGE('',*,*,#264,.T.);
#381=CYLINDRICAL_SURFACE('',#432,2.);
#382=CYLINDRICAL_SURFACE('',#435,2.);
#383=CYLINDRICAL_SURFACE('',#438,2.);
#384=CYLINDRICAL_SURFACE('',#441,2.);
#385=CYLINDRICAL_SURFACE('',#448,2.24999999999999);
#386=CYLINDRICAL_SURFACE('',#452,2.24999999999998);
#387=CYLINDRICAL_SURFACE('',#455,2.25);
#388=CYLINDRICAL_SURFACE('',#459,2.24999999999998);
#389=ADVANCED_FACE('',(#39),#381,.F.);
#390=ADVANCED_FACE('',(#40),#382,.F.);
#391=ADVANCED_FACE('',(#41),#383,.F.);
#392=ADVANCED_FACE('',(#42),#384,.F.);
#393=ADVANCED_FACE('',(#43),#27,.T.);
#394=ADVANCED_FACE('',(#44,#15,#16,#17,#18),#28,.T.);
#395=ADVANCED_FACE('',(#45),#29,.T.);
#396=ADVANCED_FACE('',(#46),#30,.F.);
#397=ADVANCED_FACE('',(#47),#385,.F.);
#398=ADVANCED_FACE('',(#48),#31,.F.);
#399=ADVANCED_FACE('',(#49),#386,.F.);
#400=ADVANCED_FACE('',(#50),#387,.F.);
#401=ADVANCED_FACE('',(#51),#32,.F.);
#402=ADVANCED_FACE('',(#52),#388,.F.);
#403=ADVANCED_FACE('',(#53),#33,.F.);
#404=ADVANCED_FACE('',(#54),#34,.T.);
#405=ADVANCED_FACE('',(#55),#35,.T.);
#406=ADVANCED_FACE('',(#56),#36,.T.);
#407=ADVANCED_FACE('',(#57,#19,#20,#21,#22,#23,#24),#37,.T.);
#408=ADVANCED_FACE('',(#58,#25,#26),#38,.F.);
#409=CLOSED_SHELL('',(#389,#390,#391,#392,#393,#394,#395,#396,#397,#398,
#399,#400,#401,#402,#403,#404,#405,#406,#407,#408));
#410=DERIVED_UNIT_ELEMENT(#413,1.);
#411=DERIVED_UNIT_ELEMENT(#696,-3.);
#412=DIMENSIONAL_EXPONENTS(0.,1.,0.,0.,0.,0.,0.);
#413=(
CONVERSION_BASED_UNIT('gram',#415)
MASS_UNIT()
NAMED_UNIT(#412)
);
#414=(
MASS_UNIT()
NAMED_UNIT(*)
SI_UNIT(.KILO.,.GRAM.)
);
#415=MASS_MEASURE_WITH_UNIT(MASS_MEASURE(0.001),#414);
#416=DERIVED_UNIT((#410,#411));
#417=MEASURE_REPRESENTATION_ITEM('density measure',
POSITIVE_RATIO_MEASURE(1.),#416);
#418=PROPERTY_DEFINITION_REPRESENTATION(#423,#420);
#419=PROPERTY_DEFINITION_REPRESENTATION(#424,#421);
#420=REPRESENTATION('material name',(#422),#693);
#421=REPRESENTATION('density',(#417),#693);
#422=DESCRIPTIVE_REPRESENTATION_ITEM('Gen\X\E9rico','Gen\X\E9rico');
#423=PROPERTY_DEFINITION('material property','material name',#703);
#424=PROPERTY_DEFINITION('material property','density of part',#703);
#425=DATE_TIME_ROLE('creation_date');
#426=APPLIED_DATE_AND_TIME_ASSIGNMENT(#427,#425,(#703));
#427=DATE_AND_TIME(#428,#429);
#428=CALENDAR_DATE(2025,23,9);
#429=LOCAL_TIME(0,0,0.,#430);
#430=COORDINATED_UNIVERSAL_TIME_OFFSET(0,0,.BEHIND.);
#431=AXIS2_PLACEMENT_3D('',#580,#468,#469);
#432=AXIS2_PLACEMENT_3D('',#581,#470,#471);
#433=AXIS2_PLACEMENT_3D('',#583,#472,#473);
#434=AXIS2_PLACEMENT_3D('',#586,#475,#476);
#435=AXIS2_PLACEMENT_3D('',#587,#477,#478);
#436=AXIS2_PLACEMENT_3D('',#589,#479,#480);
#437=AXIS2_PLACEMENT_3D('',#592,#482,#483);
#438=AXIS2_PLACEMENT_3D('',#593,#484,#485);
#439=AXIS2_PLACEMENT_3D('',#595,#486,#487);
#440=AXIS2_PLACEMENT_3D('',#598,#489,#490);
#441=AXIS2_PLACEMENT_3D('',#599,#491,#492);
#442=AXIS2_PLACEMENT_3D('',#601,#493,#494);
#443=AXIS2_PLACEMENT_3D('',#604,#496,#497);
#444=AXIS2_PLACEMENT_3D('',#605,#498,#499);
#445=AXIS2_PLACEMENT_3D('',#614,#504,#505);
#446=AXIS2_PLACEMENT_3D('',#620,#509,#510);
#447=AXIS2_PLACEMENT_3D('',#626,#514,#515);
#448=AXIS2_PLACEMENT_3D('',#635,#520,#521);
#449=AXIS2_PLACEMENT_3D('',#637,#522,#523);
#450=AXIS2_PLACEMENT_3D('',#640,#525,#526);
#451=AXIS2_PLACEMENT_3D('',#641,#527,#528);
#452=AXIS2_PLACEMENT_3D('',#647,#532,#533);
#453=AXIS2_PLACEMENT_3D('',#648,#534,#535);
#454=AXIS2_PLACEMENT_3D('',#649,#536,#537);
#455=AXIS2_PLACEMENT_3D('',#650,#538,#539);
#456=AXIS2_PLACEMENT_3D('',#653,#540,#541);
#457=AXIS2_PLACEMENT_3D('',#657,#543,#544);
#458=AXIS2_PLACEMENT_3D('',#659,#546,#547);
#459=AXIS2_PLACEMENT_3D('',#665,#551,#552);
#460=AXIS2_PLACEMENT_3D('',#667,#553,#554);
#461=AXIS2_PLACEMENT_3D('',#670,#556,#557);
#462=AXIS2_PLACEMENT_3D('',#671,#558,#559);
#463=AXIS2_PLACEMENT_3D('',#674,#562,#563);
#464=AXIS2_PLACEMENT_3D('',#680,#567,#568);
#465=AXIS2_PLACEMENT_3D('',#686,#572,#573);
#466=AXIS2_PLACEMENT_3D('',#689,#576,#577);
#467=AXIS2_PLACEMENT_3D('',#690,#578,#579);
#468=DIRECTION('axis',(0.,0.,1.));
#469=DIRECTION('refdir',(1.,0.,0.));
#470=DIRECTION('center_axis',(0.,-1.,0.));
#471=DIRECTION('ref_axis',(1.,0.,0.));
#472=DIRECTION('center_axis',(0.,-1.,0.));
#473=DIRECTION('ref_axis',(1.,0.,0.));
#474=DIRECTION('',(0.,-1.,0.));
#475=DIRECTION('center_axis',(0.,1.,0.));
#476=DIRECTION('ref_axis',(1.,0.,0.));
#477=DIRECTION('center_axis',(0.,-1.,0.));
#478=DIRECTION('ref_axis',(1.,0.,0.));
#479=DIRECTION('center_axis',(0.,-1.,0.));
#480=DIRECTION('ref_axis',(1.,0.,0.));
#481=DIRECTION('',(0.,-1.,0.));
#482=DIRECTION('center_axis',(0.,1.,0.));
#483=DIRECTION('ref_axis',(1.,0.,0.));
#484=DIRECTION('center_axis',(0.,-1.,0.));
#485=DIRECTION('ref_axis',(1.,0.,0.));
#486=DIRECTION('center_axis',(0.,-1.,0.));
#487=DIRECTION('ref_axis',(1.,0.,0.));
#488=DIRECTION('',(0.,-1.,0.));
#489=DIRECTION('center_axis',(0.,1.,0.));
#490=DIRECTION('ref_axis',(1.,0.,0.));
#491=DIRECTION('center_axis',(0.,-1.,0.));
#492=DIRECTION('ref_axis',(1.,0.,0.));
#493=DIRECTION('center_axis',(0.,-1.,0.));
#494=DIRECTION('ref_axis',(1.,0.,0.));
#495=DIRECTION('',(0.,-1.,0.));
#496=DIRECTION('center_axis',(0.,1.,0.));
#497=DIRECTION('ref_axis',(1.,0.,0.));
#498=DIRECTION('center_axis',(0.,0.,1.));
#499=DIRECTION('ref_axis',(-1.,0.,0.));
#500=DIRECTION('',(1.,0.,0.));
#501=DIRECTION('',(0.,-1.,0.));
#502=DIRECTION('',(-1.,0.,0.));
#503=DIRECTION('',(0.,-1.,0.));
#504=DIRECTION('center_axis',(0.,-1.,0.));
#505=DIRECTION('ref_axis',(0.,0.,-1.));
#506=DIRECTION('',(0.,0.,-1.));
#507=DIRECTION('',(-1.,0.,0.));
#508=DIRECTION('',(0.,0.,1.));
#509=DIRECTION('center_axis',(0.,0.,1.));
#510=DIRECTION('ref_axis',(1.,0.,0.));
#511=DIRECTION('',(0.,1.,0.));
#512=DIRECTION('',(1.,0.,0.));
#513=DIRECTION('',(0.,1.,0.));
#514=DIRECTION('center_axis',(-6.71131603310384E-16,0.,-1.));
#515=DIRECTION('ref_axis',(1.,0.,-6.71131603310384E-16));
#516=DIRECTION('',(1.,0.,-6.71131603310384E-16));
#517=DIRECTION('',(0.,-1.,0.));
#518=DIRECTION('',(-1.,0.,6.71131603310384E-16));
#519=DIRECTION('',(0.,-1.,0.));
#520=DIRECTION('center_axis',(0.,-1.,0.));
#521=DIRECTION('ref_axis',(0.,0.,-1.));
#522=DIRECTION('center_axis',(0.,-1.,0.));
#523=DIRECTION('ref_axis',(0.,0.,-1.));
#524=DIRECTION('',(0.,-1.,0.));
#525=DIRECTION('center_axis',(0.,1.,0.));
#526=DIRECTION('ref_axis',(0.,0.,-1.));
#527=DIRECTION('center_axis',(-1.42793958151146E-17,0.,1.));
#528=DIRECTION('ref_axis',(-1.,0.,-1.42793958151146E-17));
#529=DIRECTION('',(-1.,0.,-1.42793958151146E-17));
#530=DIRECTION('',(0.,-1.,0.));
#531=DIRECTION('',(1.,0.,1.42793958151146E-17));
#532=DIRECTION('center_axis',(0.,-1.,0.));
#533=DIRECTION('ref_axis',(-1.57898385724468E-14,0.,1.));
#534=DIRECTION('center_axis',(0.,-1.,0.));
#535=DIRECTION('ref_axis',(-1.57898385724468E-14,0.,1.));
#536=DIRECTION('center_axis',(0.,1.,0.));
#537=DIRECTION('ref_axis',(-1.57898385724468E-14,0.,1.));
#538=DIRECTION('center_axis',(0.,-1.,0.));
#539=DIRECTION('ref_axis',(0.,0.,-1.));
#540=DIRECTION('center_axis',(0.,-1.,0.));
#541=DIRECTION('ref_axis',(0.,0.,-1.));
#542=DIRECTION('',(0.,-1.,0.));
#543=DIRECTION('center_axis',(0.,1.,0.));
#544=DIRECTION('ref_axis',(0.,0.,-1.));
#545=DIRECTION('',(0.,-1.,0.));
#546=DIRECTION('center_axis',(-6.71131603310384E-16,0.,1.));
#547=DIRECTION('ref_axis',(-1.,0.,-6.71131603310384E-16));
#548=DIRECTION('',(-1.,0.,-6.71131603310384E-16));
#549=DIRECTION('',(0.,-1.,0.));
#550=DIRECTION('',(1.,0.,6.71131603310384E-16));
#551=DIRECTION('center_axis',(0.,-1.,0.));
#552=DIRECTION('ref_axis',(-7.89491928622341E-15,0.,1.));
#553=DIRECTION('center_axis',(0.,-1.,0.));
#554=DIRECTION('ref_axis',(-7.89491928622341E-15,0.,1.));
#555=DIRECTION('',(0.,-1.,0.));
#556=DIRECTION('center_axis',(0.,1.,0.));
#557=DIRECTION('ref_axis',(-7.89491928622341E-15,0.,1.));
#558=DIRECTION('center_axis',(-1.42793958151146E-17,0.,-1.));
#559=DIRECTION('ref_axis',(1.,0.,-1.42793958151146E-17));
#560=DIRECTION('',(1.,0.,-1.42793958151146E-17));
#561=DIRECTION('',(-1.,0.,1.42793958151146E-17));
#562=DIRECTION('center_axis',(1.,0.,0.));
#563=DIRECTION('ref_axis',(0.,0.,-1.));
#564=DIRECTION('',(0.,0.,-1.));
#565=DIRECTION('',(0.,1.,0.));
#566=DIRECTION('',(0.,0.,-1.));
#567=DIRECTION('center_axis',(-1.,0.,0.));
#568=DIRECTION('ref_axis',(0.,0.,1.));
#569=DIRECTION('',(0.,0.,1.));
#570=DIRECTION('',(0.,0.,1.));
#571=DIRECTION('',(0.,1.,0.));
#572=DIRECTION('center_axis',(0.,0.,-1.));
#573=DIRECTION('ref_axis',(-1.,0.,0.));
#574=DIRECTION('',(-1.,0.,0.));
#575=DIRECTION('',(-1.,0.,0.));
#576=DIRECTION('center_axis',(0.,1.,0.));
#577=DIRECTION('ref_axis',(0.,0.,1.));
#578=DIRECTION('center_axis',(0.,1.,0.));
#579=DIRECTION('ref_axis',(0.,0.,1.));
#580=CARTESIAN_POINT('',(0.,0.,0.));
#581=CARTESIAN_POINT('Origin',(30.,6.,45.));
#582=CARTESIAN_POINT('',(28.,6.,45.));
#583=CARTESIAN_POINT('Origin',(30.,6.,45.));
#584=CARTESIAN_POINT('',(28.,3.,45.));
#585=CARTESIAN_POINT('',(28.,6.,45.));
#586=CARTESIAN_POINT('Origin',(30.,3.,45.));
#587=CARTESIAN_POINT('Origin',(-30.,6.,45.));
#588=CARTESIAN_POINT('',(-32.,6.,45.));
#589=CARTESIAN_POINT('Origin',(-30.,6.,45.));
#590=CARTESIAN_POINT('',(-32.,3.,45.));
#591=CARTESIAN_POINT('',(-32.,6.,45.));
#592=CARTESIAN_POINT('Origin',(-30.,3.,45.));
#593=CARTESIAN_POINT('Origin',(90.,6.,45.));
#594=CARTESIAN_POINT('',(88.,6.,45.));
#595=CARTESIAN_POINT('Origin',(90.,6.,45.));
#596=CARTESIAN_POINT('',(88.,3.,45.));
#597=CARTESIAN_POINT('',(88.,6.,45.));
#598=CARTESIAN_POINT('Origin',(90.,3.,45.));
#599=CARTESIAN_POINT('Origin',(-90.,6.,45.));
#600=CARTESIAN_POINT('',(-92.,6.,45.));
#601=CARTESIAN_POINT('Origin',(-90.,6.,45.));
#602=CARTESIAN_POINT('',(-92.,3.,45.));
#603=CARTESIAN_POINT('',(-92.,6.,45.));
#604=CARTESIAN_POINT('Origin',(-90.,3.,45.));
#605=CARTESIAN_POINT('Origin',(100.,6.,50.));
#606=CARTESIAN_POINT('',(-100.,6.,50.));
#607=CARTESIAN_POINT('',(100.,6.,50.));
#608=CARTESIAN_POINT('',(-100.,6.,50.));
#609=CARTESIAN_POINT('',(-100.,3.,50.));
#610=CARTESIAN_POINT('',(-100.,6.,50.));
#611=CARTESIAN_POINT('',(100.,3.,50.));
#612=CARTESIAN_POINT('',(-100.,3.,50.));
#613=CARTESIAN_POINT('',(100.,6.,50.));
#614=CARTESIAN_POINT('Origin',(0.,3.,45.));
#615=CARTESIAN_POINT('',(-100.,3.,40.));
#616=CARTESIAN_POINT('',(-100.,3.,40.));
#617=CARTESIAN_POINT('',(100.,3.,40.));
#618=CARTESIAN_POINT('',(-50.,3.,40.));
#619=CARTESIAN_POINT('',(100.,3.,50.));
#620=CARTESIAN_POINT('Origin',(-100.,0.,40.));
#621=CARTESIAN_POINT('',(-100.,0.,40.));
#622=CARTESIAN_POINT('',(-100.,0.,40.));
#623=CARTESIAN_POINT('',(100.,0.,40.));
#624=CARTESIAN_POINT('',(-100.,0.,40.));
#625=CARTESIAN_POINT('',(100.,0.,40.));
#626=CARTESIAN_POINT('Origin',(-67.75,6.,12.75));
#627=CARTESIAN_POINT('',(-67.75,6.,12.75));
#628=CARTESIAN_POINT('',(87.75,6.,12.7499999999999));
#629=CARTESIAN_POINT('',(-33.875,6.,12.75));
#630=CARTESIAN_POINT('',(-67.75,0.,12.75));
#631=CARTESIAN_POINT('',(-67.75,6.,12.75));
#632=CARTESIAN_POINT('',(87.75,0.,12.7499999999999));
#633=CARTESIAN_POINT('',(-33.875,0.,12.75));
#634=CARTESIAN_POINT('',(87.75,6.,12.7499999999999));
#635=CARTESIAN_POINT('Origin',(-67.75,6.,15.));
#636=CARTESIAN_POINT('',(-67.75,6.,17.25));
#637=CARTESIAN_POINT('Origin',(-67.75,6.,15.));
#638=CARTESIAN_POINT('',(-67.75,0.,17.25));
#639=CARTESIAN_POINT('',(-67.75,6.,17.25));
#640=CARTESIAN_POINT('Origin',(-67.75,0.,15.));
#641=CARTESIAN_POINT('Origin',(87.75,6.,17.25));
#642=CARTESIAN_POINT('',(87.75,6.,17.25));
#643=CARTESIAN_POINT('',(43.875,6.,17.25));
#644=CARTESIAN_POINT('',(87.75,0.,17.25));
#645=CARTESIAN_POINT('',(87.75,6.,17.25));
#646=CARTESIAN_POINT('',(43.875,0.,17.25));
#647=CARTESIAN_POINT('Origin',(87.75,6.,15.));
#648=CARTESIAN_POINT('Origin',(87.75,6.,15.));
#649=CARTESIAN_POINT('Origin',(87.75,0.,15.));
#650=CARTESIAN_POINT('Origin',(-67.75,6.,-15.));
#651=CARTESIAN_POINT('',(-67.75,6.,-12.75));
#652=CARTESIAN_POINT('',(-67.75,6.,-17.25));
#653=CARTESIAN_POINT('Origin',(-67.75,6.,-15.));
#654=CARTESIAN_POINT('',(-67.75,0.,-12.75));
#655=CARTESIAN_POINT('',(-67.75,6.,-12.75));
#656=CARTESIAN_POINT('',(-67.75,0.,-17.25));
#657=CARTESIAN_POINT('Origin',(-67.75,0.,-15.));
#658=CARTESIAN_POINT('',(-67.75,6.,-17.25));
#659=CARTESIAN_POINT('Origin',(87.75,6.,-12.7499999999999));
#660=CARTESIAN_POINT('',(87.75,6.,-12.7499999999999));
#661=CARTESIAN_POINT('',(43.875,6.,-12.75));
#662=CARTESIAN_POINT('',(87.75,0.,-12.7499999999999));
#663=CARTESIAN_POINT('',(87.75,6.,-12.7499999999999));
#664=CARTESIAN_POINT('',(43.875,0.,-12.75));
#665=CARTESIAN_POINT('Origin',(87.75,6.,-14.9999999999999));
#666=CARTESIAN_POINT('',(87.75,6.,-17.25));
#667=CARTESIAN_POINT('Origin',(87.75,6.,-14.9999999999999));
#668=CARTESIAN_POINT('',(87.75,0.,-17.25));
#669=CARTESIAN_POINT('',(87.75,6.,-17.25));
#670=CARTESIAN_POINT('Origin',(87.75,0.,-14.9999999999999));
#671=CARTESIAN_POINT('Origin',(-67.75,6.,-17.25));
#672=CARTESIAN_POINT('',(-33.875,6.,-17.25));
#673=CARTESIAN_POINT('',(-33.875,0.,-17.25));
#674=CARTESIAN_POINT('Origin',(100.,0.,40.));
#675=CARTESIAN_POINT('',(100.,0.,-40.));
#676=CARTESIAN_POINT('',(100.,0.,40.));
#677=CARTESIAN_POINT('',(100.,6.,-40.));
#678=CARTESIAN_POINT('',(100.,0.,-40.));
#679=CARTESIAN_POINT('',(100.,6.,50.));
#680=CARTESIAN_POINT('Origin',(-100.,0.,-40.));
#681=CARTESIAN_POINT('',(-100.,0.,-40.));
#682=CARTESIAN_POINT('',(-100.,0.,-40.));
#683=CARTESIAN_POINT('',(-100.,6.,-40.));
#684=CARTESIAN_POINT('',(-100.,6.,-40.));
#685=CARTESIAN_POINT('',(-100.,0.,-40.));
#686=CARTESIAN_POINT('Origin',(100.,0.,-40.));
#687=CARTESIAN_POINT('',(100.,0.,-40.));
#688=CARTESIAN_POINT('',(100.,6.,-40.));
#689=CARTESIAN_POINT('Origin',(0.,6.,0.));
#690=CARTESIAN_POINT('Origin',(0.,0.,0.));
#691=UNCERTAINTY_MEASURE_WITH_UNIT(LENGTH_MEASURE(0.01),#695,
'DISTANCE_ACCURACY_VALUE',
'Maximum model space distance between geometric entities at asserted c
onnectivities');
#692=UNCERTAINTY_MEASURE_WITH_UNIT(LENGTH_MEASURE(0.01),#695,
'DISTANCE_ACCURACY_VALUE',
'Maximum model space distance between geometric entities at asserted c
onnectivities');
#693=(
GEOMETRIC_REPRESENTATION_CONTEXT(3)
GLOBAL_UNCERTAINTY_ASSIGNED_CONTEXT((#691))
GLOBAL_UNIT_ASSIGNED_CONTEXT((#695,#697,#698))
REPRESENTATION_CONTEXT('','3D')
);
#694=(
GEOMETRIC_REPRESENTATION_CONTEXT(3)
GLOBAL_UNCERTAINTY_ASSIGNED_CONTEXT((#692))
GLOBAL_UNIT_ASSIGNED_CONTEXT((#695,#697,#698))
REPRESENTATION_CONTEXT('','3D')
);
#695=(
LENGTH_UNIT()
NAMED_UNIT(*)
SI_UNIT(.MILLI.,.METRE.)
);
#696=(
LENGTH_UNIT()
NAMED_UNIT(*)
SI_UNIT(.CENTI.,.METRE.)
);
#697=(
NAMED_UNIT(*)
PLANE_ANGLE_UNIT()
SI_UNIT($,.RADIAN.)
);
#698=(
NAMED_UNIT(*)
SI_UNIT($,.STERADIAN.)
SOLID_ANGLE_UNIT()
);
#699=SHAPE_DEFINITION_REPRESENTATION(#700,#701);
#700=PRODUCT_DEFINITION_SHAPE('',$,#703);
#701=SHAPE_REPRESENTATION('',(#431),#693);
#702=PRODUCT_DEFINITION_CONTEXT('part definition',#707,'design');
#703=PRODUCT_DEFINITION('MesaDePruebas','MesaDePruebas',#704,#702);
#704=PRODUCT_DEFINITION_FORMATION('',$,#709);
#705=PRODUCT_RELATED_PRODUCT_CATEGORY('MesaDePruebas','MesaDePruebas',(#709));
#706=APPLICATION_PROTOCOL_DEFINITION('international standard',
'automotive_design',2009,#707);
#707=APPLICATION_CONTEXT(
'Core Data for Automotive Mechanical Design Process');
#708=PRODUCT_CONTEXT('part definition',#707,'mechanical');
#709=PRODUCT('MesaDePruebas','MesaDePruebas',$,(#708));
#710=PRESENTATION_STYLE_ASSIGNMENT((#711));
#711=SURFACE_STYLE_USAGE(.BOTH.,#714);
#712=SURFACE_STYLE_RENDERING_WITH_PROPERTIES($,#718,(#713));
#713=SURFACE_STYLE_TRANSPARENT(0.);
#714=SURFACE_SIDE_STYLE('',(#715,#712));
#715=SURFACE_STYLE_FILL_AREA(#716);
#716=FILL_AREA_STYLE('',(#717));
#717=FILL_AREA_STYLE_COLOUR('',#718);
#718=COLOUR_RGB('',0.749019607843137,0.749019607843137,0.749019607843137);
ENDSEC;
END-ISO-10303-21;
